<!-- Modal-winodw-icons -->

<svg aria-hidden="true" style="position: absolute; width: 0; height: 0; overflow: hidden;" version="1.1"
    xmlns="http://www.w3.org/2000/svg" xmlns:xlink="http://www.w3.org/1999/xlink">
    <defs>
        <!-- Card -->
        <symbol id="buy-icon-card" viewBox="0 0 51 32">
            <path fill="#ed0006" style="fill: var(--color1, #ed0006)"
                d="M25.6 26.935c-2.556 2.194-5.873 3.518-9.496 3.518-8.086 0-14.641-6.593-14.641-14.726s6.555-14.726 14.641-14.726c3.624 0 6.94 1.324 9.496 3.518 2.557-2.194 5.873-3.518 9.497-3.518 8.086 0 14.64 6.593 14.64 14.726s-6.555 14.726-14.64 14.726c-3.624 0-6.94-1.324-9.497-3.518z">
            </path>
            <path fill="#f9a000" style="fill: var(--color2, #f9a000)"
                d="M25.6 26.935c3.148-2.701 5.144-6.72 5.144-11.209s-1.996-8.507-5.144-11.208c2.556-2.194 5.873-3.518 9.497-3.518 8.086 0 14.64 6.593 14.64 14.726s-6.555 14.726-14.64 14.726c-3.624 0-6.94-1.324-9.497-3.518z">
            </path>
            <path fill="#ff5e00" style="fill: var(--color3, #ff5e00)"
                d="M25.6 26.935c3.148-2.701 5.144-6.72 5.144-11.208s-1.996-8.507-5.144-11.208c-3.148 2.701-5.144 6.72-5.144 11.208s1.996 8.507 5.144 11.208z">
            </path>
        </symbol>
        <!-- Close -->
        <symbol id="buy-icon-close" viewBox="0 0 32 32">
            <path
                d="M32 3.223l-3.223-3.223-12.777 12.777-12.777-12.777-3.223 3.223 12.777 12.777-12.777 12.777 3.223 3.223 12.777-12.777 12.777 12.777 3.223-3.223-12.777-12.777 12.777-12.777z">
            </path>
        </symbol>
        <!-- Flag -->
        <symbol id="buy-icon-flag" viewBox="0 0 41 32">
            <path fill="#ffd700" style="fill: var(--color4, #ffd700)" d="M40.745 1.355h-40.434v30.090h40.434v-30.090z">
            </path>
            <path fill="#0057b7" style="fill: var(--color5, #0057b7)" d="M0.311 1.355h40.434v15.045h-40.434v-15.045z">
            </path>
        </symbol>
        <symbol id="icon-play3" viewBox="0 0 32 32">
            <path d="M6 4l20 12-20 12z"></path>
        </symbol>
    </defs>
</svg>